<?xml version="1.0" encoding="UTF-8" standalone="no"?>
<!-- Created with Inkscape (http://www.inkscape.org/) -->

<svg
   xmlns:dc="http://purl.org/dc/elements/1.1/"
   xmlns:cc="http://creativecommons.org/ns#"
   xmlns:rdf="http://www.w3.org/1999/02/22-rdf-syntax-ns#"
   xmlns:svg="http://www.w3.org/2000/svg"
   xmlns="http://www.w3.org/2000/svg"
   version="1.1"
   width="740"
   height="740"
   id="svg18570">
  <defs
     id="defs18572">
    <clipPath
       id="clipPath5184">
      <path
         d="m 0,13808 3899.22,0 0,-13808 L 0,0 0,13808 z"
         id="path5186" />
    </clipPath>
    <clipPath
       id="clipPath5394">
      <path
         d="m 1518.43,9624.02 378.54,0 0,-201.47 -378.54,0 0,201.47 z"
         id="path5396" />
    </clipPath>
    <clipPath
       id="clipPath5442">
      <path
         d="m 1686.8,9829.14 184.19,0 0,-382.37 -184.19,0 0,382.37 z"
         id="path5444" />
    </clipPath>
    <clipPath
       id="clipPath5566">
      <path
         d="m 1768.71,9775.87 128.24,0 0,-352.28 -128.24,0 0,352.28 z"
         id="path5568" />
    </clipPath>
  </defs>
  <metadata
     id="metadata18575">
    <rdf:RDF>
      <cc:Work
         rdf:about="">
        <dc:format>image/svg+xml</dc:format>
        <dc:type
           rdf:resource="http://purl.org/dc/dcmitype/StillImage" />
        <dc:title></dc:title>
      </cc:Work>
    </rdf:RDF>
  </metadata>
  <g
     transform="translate(130.00003,-239.5055)"
     id="layer1">
    <g
       transform="matrix(1.25,0,0,-1.25,-1830.4059,12612.235)"
       id="g5180">
      <g
         clip-path="url(#clipPath5184)"
         id="g5182">
        <g
           transform="translate(1912.3247,9602.1836)"
           id="g5188">
          <path
             d="m 0,0 c 0,-141.385 -114.615,-256 -256,-256 -141.385,0 -256,114.615 -256,256 0,141.385 114.615,256 256,256 C -114.615,256 0,141.385 0,0"
             id="path5190"
             style="fill:#e8b750;fill-opacity:1;fill-rule:nonzero;stroke:none" />
        </g>
        <g
           transform="translate(1879.6143,9422.5791)"
           id="g5192">
          <path
             d="m 0,0 -442.305,0 c -9.576,0 -17.34,7.764 -17.34,17.34 l 0,318.983 c 0,9.576 7.764,17.34 17.34,17.34 l 442.305,0 c 9.577,0 17.34,-7.764 17.34,-17.34 l 0,-318.983 C 17.34,7.764 9.577,0 0,0"
             id="path5194"
             style="fill:#6da7ad;fill-opacity:1;fill-rule:nonzero;stroke:none" />
        </g>
        <path
           d="m 1447.071,9749.141 422.782,0 0,-299.46 -422.782,0 0,299.46 z"
           id="path5196"
           style="fill:none;stroke:#507d7f;stroke-width:2;stroke-linecap:butt;stroke-linejoin:miter;stroke-miterlimit:10;stroke-opacity:1;stroke-dasharray:none" />
        <path
           d="m 1447.974,9450.584 420.975,0 0,297.653 -420.975,0 0,-297.653 z m 422.782,-1.807 -424.589,0 0,301.267 424.589,0 0,-301.267 z"
           id="path5198"
           style="fill:#507d7f;fill-opacity:1;fill-rule:nonzero;stroke:none" />
        <path
           d="m 1869.853,9498.688 -422.782,0 0,1.807 422.782,0 0,-1.807 z"
           id="path5200"
           style="fill:#507d7f;fill-opacity:1;fill-rule:nonzero;stroke:none" />
        <path
           d="m 1869.853,9548.597 -422.782,0 0,1.807 422.782,0 0,-1.807 z"
           id="path5202"
           style="fill:#507d7f;fill-opacity:1;fill-rule:nonzero;stroke:none" />
        <path
           d="m 1869.853,9598.507 -422.782,0 0,1.807 422.782,0 0,-1.807 z"
           id="path5204"
           style="fill:#507d7f;fill-opacity:1;fill-rule:nonzero;stroke:none" />
        <path
           d="m 1869.853,9648.417 -422.782,0 0,1.808 422.782,0 0,-1.808 z"
           id="path5206"
           style="fill:#507d7f;fill-opacity:1;fill-rule:nonzero;stroke:none" />
        <path
           d="m 1869.853,9698.327 -422.782,0 0,1.807 422.782,0 0,-1.807 z"
           id="path5208"
           style="fill:#507d7f;fill-opacity:1;fill-rule:nonzero;stroke:none" />
        <path
           d="m 1800.293,9449.681 -1.807,0 0,299.46 1.807,0 0,-299.46 z"
           id="path5210"
           style="fill:#507d7f;fill-opacity:1;fill-rule:nonzero;stroke:none" />
        <path
           d="m 1729.829,9449.681 -1.807,0 0,299.46 1.807,0 0,-299.46 z"
           id="path5212"
           style="fill:#507d7f;fill-opacity:1;fill-rule:nonzero;stroke:none" />
        <path
           d="m 1659.365,9449.681 -1.807,0 0,299.46 1.807,0 0,-299.46 z"
           id="path5214"
           style="fill:#507d7f;fill-opacity:1;fill-rule:nonzero;stroke:none" />
        <path
           d="m 1662.075,9449.681 -1.807,0 0,299.46 1.807,0 0,-299.46 z"
           id="path5216"
           style="fill:#507d7f;fill-opacity:1;fill-rule:nonzero;stroke:none" />
        <path
           d="m 1588.902,9449.681 -1.807,0 0,299.46 1.807,0 0,-299.46 z"
           id="path5218"
           style="fill:#507d7f;fill-opacity:1;fill-rule:nonzero;stroke:none" />
        <path
           d="m 1518.438,9449.681 -1.807,0 0,299.46 1.807,0 0,-299.46 z"
           id="path5220"
           style="fill:#507d7f;fill-opacity:1;fill-rule:nonzero;stroke:none" />
        <path
           d="m 1461.073,9738.311 -1.807,0 0,9.927 1.807,0 0,-9.927 z"
           id="path5222"
           style="fill:#507d7f;fill-opacity:1;fill-rule:nonzero;stroke:none" />
        <path
           d="m 1474.624,9741.924 -1.807,0 0,8.12 1.807,0 0,-8.12 z"
           id="path5224"
           style="fill:#507d7f;fill-opacity:1;fill-rule:nonzero;stroke:none" />
        <path
           d="m 1504.586,9741.021 -1.807,0 0,8.12 1.807,0 0,-8.12 z"
           id="path5226"
           style="fill:#507d7f;fill-opacity:1;fill-rule:nonzero;stroke:none" />
        <path
           d="m 1488.777,9738.311 -1.807,0 0,9.927 1.807,0 0,-9.927 z"
           id="path5228"
           style="fill:#507d7f;fill-opacity:1;fill-rule:nonzero;stroke:none" />
        <path
           d="m 1532.892,9738.311 -1.807,0 0,9.927 1.807,0 0,-9.927 z"
           id="path5230"
           style="fill:#507d7f;fill-opacity:1;fill-rule:nonzero;stroke:none" />
        <path
           d="m 1546.443,9741.924 -1.807,0 0,8.12 1.807,0 0,-8.12 z"
           id="path5232"
           style="fill:#507d7f;fill-opacity:1;fill-rule:nonzero;stroke:none" />
        <path
           d="m 1576.405,9741.021 -1.807,0 0,8.12 1.807,0 0,-8.12 z"
           id="path5234"
           style="fill:#507d7f;fill-opacity:1;fill-rule:nonzero;stroke:none" />
        <path
           d="m 1560.596,9738.311 -1.807,0 0,9.927 1.807,0 0,-9.927 z"
           id="path5236"
           style="fill:#507d7f;fill-opacity:1;fill-rule:nonzero;stroke:none" />
        <path
           d="m 1600.796,9738.311 -1.807,0 0,9.927 1.807,0 0,-9.927 z"
           id="path5238"
           style="fill:#507d7f;fill-opacity:1;fill-rule:nonzero;stroke:none" />
        <path
           d="m 1614.347,9741.924 -1.807,0 0,8.12 1.807,0 0,-8.12 z"
           id="path5240"
           style="fill:#507d7f;fill-opacity:1;fill-rule:nonzero;stroke:none" />
        <path
           d="m 1644.309,9741.021 -1.807,0 0,8.12 1.807,0 0,-8.12 z"
           id="path5242"
           style="fill:#507d7f;fill-opacity:1;fill-rule:nonzero;stroke:none" />
        <path
           d="m 1628.5,9738.311 -1.807,0 0,9.927 1.807,0 0,-9.927 z"
           id="path5244"
           style="fill:#507d7f;fill-opacity:1;fill-rule:nonzero;stroke:none" />
        <path
           d="m 1672.615,9738.311 -1.807,0 0,9.927 1.807,0 0,-9.927 z"
           id="path5246"
           style="fill:#507d7f;fill-opacity:1;fill-rule:nonzero;stroke:none" />
        <path
           d="m 1686.166,9741.924 -1.807,0 0,8.12 1.807,0 0,-8.12 z"
           id="path5248"
           style="fill:#507d7f;fill-opacity:1;fill-rule:nonzero;stroke:none" />
        <path
           d="m 1716.128,9741.021 -1.807,0 0,8.12 1.807,0 0,-8.12 z"
           id="path5250"
           style="fill:#507d7f;fill-opacity:1;fill-rule:nonzero;stroke:none" />
        <path
           d="m 1700.319,9738.311 -1.807,0 0,9.927 1.807,0 0,-9.927 z"
           id="path5252"
           style="fill:#507d7f;fill-opacity:1;fill-rule:nonzero;stroke:none" />
        <path
           d="m 1743.53,9738.311 -1.807,0 0,9.927 1.807,0 0,-9.927 z"
           id="path5254"
           style="fill:#507d7f;fill-opacity:1;fill-rule:nonzero;stroke:none" />
        <path
           d="m 1757.081,9741.924 -1.807,0 0,8.12 1.807,0 0,-8.12 z"
           id="path5256"
           style="fill:#507d7f;fill-opacity:1;fill-rule:nonzero;stroke:none" />
        <path
           d="m 1787.043,9741.021 -1.807,0 0,8.12 1.807,0 0,-8.12 z"
           id="path5258"
           style="fill:#507d7f;fill-opacity:1;fill-rule:nonzero;stroke:none" />
        <path
           d="m 1771.234,9738.311 -1.807,0 0,9.927 1.807,0 0,-9.927 z"
           id="path5260"
           style="fill:#507d7f;fill-opacity:1;fill-rule:nonzero;stroke:none" />
        <path
           d="m 1815.349,9738.311 -1.807,0 0,9.927 1.807,0 0,-9.927 z"
           id="path5262"
           style="fill:#507d7f;fill-opacity:1;fill-rule:nonzero;stroke:none" />
        <path
           d="m 1828.9,9741.924 -1.807,0 0,8.12 1.807,0 0,-8.12 z"
           id="path5264"
           style="fill:#507d7f;fill-opacity:1;fill-rule:nonzero;stroke:none" />
        <path
           d="m 1858.862,9741.021 -1.807,0 0,8.12 1.807,0 0,-8.12 z"
           id="path5266"
           style="fill:#507d7f;fill-opacity:1;fill-rule:nonzero;stroke:none" />
        <path
           d="m 1843.053,9738.311 -1.807,0 0,9.927 1.807,0 0,-9.927 z"
           id="path5268"
           style="fill:#507d7f;fill-opacity:1;fill-rule:nonzero;stroke:none" />
        <path
           d="m 1452.093,9464.023 -5.62,0 0,1.251 5.62,0 0,-1.251 z"
           id="path5270"
           style="fill:#507d7f;fill-opacity:1;fill-rule:nonzero;stroke:none" />
        <path
           d="m 1452.719,9484.759 -5.62,0 0,1.25 5.62,0 0,-1.25 z"
           id="path5272"
           style="fill:#507d7f;fill-opacity:1;fill-rule:nonzero;stroke:none" />
        <path
           d="m 1454.594,9473.818 -6.87,0 0,1.25 6.87,0 0,-1.25 z"
           id="path5274"
           style="fill:#507d7f;fill-opacity:1;fill-rule:nonzero;stroke:none" />
        <path
           d="m 1452.093,9513.726 -5.62,0 0,1.25 5.62,0 0,-1.25 z"
           id="path5276"
           style="fill:#507d7f;fill-opacity:1;fill-rule:nonzero;stroke:none" />
        <path
           d="m 1452.719,9534.461 -5.62,0 0,1.25 5.62,0 0,-1.25 z"
           id="path5278"
           style="fill:#507d7f;fill-opacity:1;fill-rule:nonzero;stroke:none" />
        <path
           d="m 1454.594,9523.52 -6.87,0 0,1.251 6.87,0 0,-1.251 z"
           id="path5280"
           style="fill:#507d7f;fill-opacity:1;fill-rule:nonzero;stroke:none" />
        <path
           d="m 1452.093,9560.718 -5.62,0 0,1.251 5.62,0 0,-1.251 z"
           id="path5282"
           style="fill:#507d7f;fill-opacity:1;fill-rule:nonzero;stroke:none" />
        <path
           d="m 1452.719,9581.453 -5.62,0 0,1.25 5.62,0 0,-1.25 z"
           id="path5284"
           style="fill:#507d7f;fill-opacity:1;fill-rule:nonzero;stroke:none" />
        <path
           d="m 1454.594,9570.513 -6.87,0 0,1.25 6.87,0 0,-1.25 z"
           id="path5286"
           style="fill:#507d7f;fill-opacity:1;fill-rule:nonzero;stroke:none" />
        <path
           d="m 1452.093,9610.42 -5.62,0 0,1.25 5.62,0 0,-1.25 z"
           id="path5288"
           style="fill:#507d7f;fill-opacity:1;fill-rule:nonzero;stroke:none" />
        <path
           d="m 1452.719,9631.155 -5.62,0 0,1.25 5.62,0 0,-1.25 z"
           id="path5290"
           style="fill:#507d7f;fill-opacity:1;fill-rule:nonzero;stroke:none" />
        <path
           d="m 1454.594,9620.214 -6.87,0 0,1.251 6.87,0 0,-1.251 z"
           id="path5292"
           style="fill:#507d7f;fill-opacity:1;fill-rule:nonzero;stroke:none" />
        <path
           d="m 1452.093,9659.496 -5.62,0 0,1.251 5.62,0 0,-1.251 z"
           id="path5294"
           style="fill:#507d7f;fill-opacity:1;fill-rule:nonzero;stroke:none" />
        <path
           d="m 1452.719,9680.231 -5.62,0 0,1.25 5.62,0 0,-1.25 z"
           id="path5296"
           style="fill:#507d7f;fill-opacity:1;fill-rule:nonzero;stroke:none" />
        <path
           d="m 1454.594,9669.291 -6.87,0 0,1.25 6.87,0 0,-1.25 z"
           id="path5298"
           style="fill:#507d7f;fill-opacity:1;fill-rule:nonzero;stroke:none" />
        <path
           d="m 1452.093,9709.198 -5.62,0 0,1.25 5.62,0 0,-1.25 z"
           id="path5300"
           style="fill:#507d7f;fill-opacity:1;fill-rule:nonzero;stroke:none" />
        <path
           d="m 1452.719,9729.934 -5.62,0 0,1.25 5.62,0 0,-1.25 z"
           id="path5302"
           style="fill:#507d7f;fill-opacity:1;fill-rule:nonzero;stroke:none" />
        <path
           d="m 1454.594,9718.992 -6.87,0 0,1.251 6.87,0 0,-1.251 z"
           id="path5304"
           style="fill:#507d7f;fill-opacity:1;fill-rule:nonzero;stroke:none" />
        <path
           d="m 1459.568,9460.511 -1.807,0 0,-9.927 1.807,0 0,9.927 z"
           id="path5306"
           style="fill:#507d7f;fill-opacity:1;fill-rule:nonzero;stroke:none" />
        <path
           d="m 1473.118,9456.897 -1.807,0 0,-8.12 1.807,0 0,8.12 z"
           id="path5308"
           style="fill:#507d7f;fill-opacity:1;fill-rule:nonzero;stroke:none" />
        <path
           d="m 1503.08,9457.801 -1.807,0 0,-8.12 1.807,0 0,8.12 z"
           id="path5310"
           style="fill:#507d7f;fill-opacity:1;fill-rule:nonzero;stroke:none" />
        <path
           d="m 1487.271,9460.511 -1.807,0 0,-9.927 1.807,0 0,9.927 z"
           id="path5312"
           style="fill:#507d7f;fill-opacity:1;fill-rule:nonzero;stroke:none" />
        <path
           d="m 1531.387,9460.511 -1.807,0 0,-9.927 1.807,0 0,9.927 z"
           id="path5314"
           style="fill:#507d7f;fill-opacity:1;fill-rule:nonzero;stroke:none" />
        <path
           d="m 1544.937,9456.897 -1.807,0 0,-8.12 1.807,0 0,8.12 z"
           id="path5316"
           style="fill:#507d7f;fill-opacity:1;fill-rule:nonzero;stroke:none" />
        <path
           d="m 1574.899,9457.801 -1.807,0 0,-8.12 1.807,0 0,8.12 z"
           id="path5318"
           style="fill:#507d7f;fill-opacity:1;fill-rule:nonzero;stroke:none" />
        <path
           d="m 1559.09,9460.511 -1.807,0 0,-9.927 1.807,0 0,9.927 z"
           id="path5320"
           style="fill:#507d7f;fill-opacity:1;fill-rule:nonzero;stroke:none" />
        <path
           d="m 1599.291,9460.511 -1.807,0 0,-9.927 1.807,0 0,9.927 z"
           id="path5322"
           style="fill:#507d7f;fill-opacity:1;fill-rule:nonzero;stroke:none" />
        <path
           d="m 1612.841,9456.897 -1.807,0 0,-8.12 1.807,0 0,8.12 z"
           id="path5324"
           style="fill:#507d7f;fill-opacity:1;fill-rule:nonzero;stroke:none" />
        <path
           d="m 1642.803,9457.801 -1.807,0 0,-8.12 1.807,0 0,8.12 z"
           id="path5326"
           style="fill:#507d7f;fill-opacity:1;fill-rule:nonzero;stroke:none" />
        <path
           d="m 1626.994,9460.511 -1.807,0 0,-9.927 1.807,0 0,9.927 z"
           id="path5328"
           style="fill:#507d7f;fill-opacity:1;fill-rule:nonzero;stroke:none" />
        <path
           d="m 1671.109,9460.511 -1.807,0 0,-9.927 1.807,0 0,9.927 z"
           id="path5330"
           style="fill:#507d7f;fill-opacity:1;fill-rule:nonzero;stroke:none" />
        <path
           d="m 1684.66,9456.897 -1.807,0 0,-8.12 1.807,0 0,8.12 z"
           id="path5332"
           style="fill:#507d7f;fill-opacity:1;fill-rule:nonzero;stroke:none" />
        <path
           d="m 1714.622,9457.801 -1.807,0 0,-8.12 1.807,0 0,8.12 z"
           id="path5334"
           style="fill:#507d7f;fill-opacity:1;fill-rule:nonzero;stroke:none" />
        <path
           d="m 1698.813,9460.511 -1.807,0 0,-9.927 1.807,0 0,9.927 z"
           id="path5336"
           style="fill:#507d7f;fill-opacity:1;fill-rule:nonzero;stroke:none" />
        <path
           d="m 1742.025,9460.511 -1.807,0 0,-9.927 1.807,0 0,9.927 z"
           id="path5338"
           style="fill:#507d7f;fill-opacity:1;fill-rule:nonzero;stroke:none" />
        <path
           d="m 1755.575,9456.897 -1.807,0 0,-8.12 1.807,0 0,8.12 z"
           id="path5340"
           style="fill:#507d7f;fill-opacity:1;fill-rule:nonzero;stroke:none" />
        <path
           d="m 1785.537,9457.801 -1.807,0 0,-8.12 1.807,0 0,8.12 z"
           id="path5342"
           style="fill:#507d7f;fill-opacity:1;fill-rule:nonzero;stroke:none" />
        <path
           d="m 1769.728,9460.511 -1.807,0 0,-9.927 1.807,0 0,9.927 z"
           id="path5344"
           style="fill:#507d7f;fill-opacity:1;fill-rule:nonzero;stroke:none" />
        <path
           d="m 1813.844,9460.511 -1.807,0 0,-9.927 1.807,0 0,9.927 z"
           id="path5346"
           style="fill:#507d7f;fill-opacity:1;fill-rule:nonzero;stroke:none" />
        <path
           d="m 1827.394,9456.897 -1.807,0 0,-8.12 1.807,0 0,8.12 z"
           id="path5348"
           style="fill:#507d7f;fill-opacity:1;fill-rule:nonzero;stroke:none" />
        <path
           d="m 1857.356,9457.801 -1.807,0 0,-8.12 1.807,0 0,8.12 z"
           id="path5350"
           style="fill:#507d7f;fill-opacity:1;fill-rule:nonzero;stroke:none" />
        <path
           d="m 1841.547,9460.511 -1.807,0 0,-9.927 1.807,0 0,9.927 z"
           id="path5352"
           style="fill:#507d7f;fill-opacity:1;fill-rule:nonzero;stroke:none" />
        <path
           d="m 1864.998,9464.023 5.62,0 0,1.251 -5.62,0 0,-1.251 z"
           id="path5354"
           style="fill:#507d7f;fill-opacity:1;fill-rule:nonzero;stroke:none" />
        <path
           d="m 1864.373,9484.759 5.62,0 0,1.25 -5.62,0 0,-1.25 z"
           id="path5356"
           style="fill:#507d7f;fill-opacity:1;fill-rule:nonzero;stroke:none" />
        <path
           d="m 1862.497,9473.818 6.87,0 0,1.25 -6.87,0 0,-1.25 z"
           id="path5358"
           style="fill:#507d7f;fill-opacity:1;fill-rule:nonzero;stroke:none" />
        <path
           d="m 1864.998,9513.726 5.62,0 0,1.25 -5.62,0 0,-1.25 z"
           id="path5360"
           style="fill:#507d7f;fill-opacity:1;fill-rule:nonzero;stroke:none" />
        <path
           d="m 1864.373,9534.461 5.62,0 0,1.25 -5.62,0 0,-1.25 z"
           id="path5362"
           style="fill:#507d7f;fill-opacity:1;fill-rule:nonzero;stroke:none" />
        <path
           d="m 1862.497,9523.52 6.87,0 0,1.251 -6.87,0 0,-1.251 z"
           id="path5364"
           style="fill:#507d7f;fill-opacity:1;fill-rule:nonzero;stroke:none" />
        <path
           d="m 1864.998,9560.718 5.62,0 0,1.251 -5.62,0 0,-1.251 z"
           id="path5366"
           style="fill:#507d7f;fill-opacity:1;fill-rule:nonzero;stroke:none" />
        <path
           d="m 1864.373,9581.453 5.62,0 0,1.25 -5.62,0 0,-1.25 z"
           id="path5368"
           style="fill:#507d7f;fill-opacity:1;fill-rule:nonzero;stroke:none" />
        <path
           d="m 1862.497,9570.513 6.87,0 0,1.25 -6.87,0 0,-1.25 z"
           id="path5370"
           style="fill:#507d7f;fill-opacity:1;fill-rule:nonzero;stroke:none" />
        <path
           d="m 1864.998,9610.42 5.62,0 0,1.25 -5.62,0 0,-1.25 z"
           id="path5372"
           style="fill:#507d7f;fill-opacity:1;fill-rule:nonzero;stroke:none" />
        <path
           d="m 1864.373,9631.155 5.62,0 0,1.25 -5.62,0 0,-1.25 z"
           id="path5374"
           style="fill:#507d7f;fill-opacity:1;fill-rule:nonzero;stroke:none" />
        <path
           d="m 1862.497,9620.214 6.87,0 0,1.251 -6.87,0 0,-1.251 z"
           id="path5376"
           style="fill:#507d7f;fill-opacity:1;fill-rule:nonzero;stroke:none" />
        <path
           d="m 1864.998,9659.496 5.62,0 0,1.251 -5.62,0 0,-1.251 z"
           id="path5378"
           style="fill:#507d7f;fill-opacity:1;fill-rule:nonzero;stroke:none" />
        <path
           d="m 1864.373,9680.231 5.62,0 0,1.25 -5.62,0 0,-1.25 z"
           id="path5380"
           style="fill:#507d7f;fill-opacity:1;fill-rule:nonzero;stroke:none" />
        <path
           d="m 1862.497,9669.291 6.87,0 0,1.25 -6.87,0 0,-1.25 z"
           id="path5382"
           style="fill:#507d7f;fill-opacity:1;fill-rule:nonzero;stroke:none" />
        <path
           d="m 1864.998,9709.198 5.62,0 0,1.25 -5.62,0 0,-1.25 z"
           id="path5384"
           style="fill:#507d7f;fill-opacity:1;fill-rule:nonzero;stroke:none" />
        <path
           d="m 1864.373,9729.934 5.62,0 0,1.25 -5.62,0 0,-1.25 z"
           id="path5386"
           style="fill:#507d7f;fill-opacity:1;fill-rule:nonzero;stroke:none" />
        <path
           d="m 1862.497,9718.992 6.87,0 0,1.251 -6.87,0 0,-1.251 z"
           id="path5388"
           style="fill:#507d7f;fill-opacity:1;fill-rule:nonzero;stroke:none" />
        <g
           id="g5390">
          <g
             id="g5392" />
          <g
             id="g5398">
            <g
               clip-path="url(#clipPath5394)"
               id="g5400"
               style="opacity:0.19000202">
              <g
                 transform="translate(1564.3419,9624.0176)"
                 id="g5402">
                <path
                   d="m 0,0 -45.915,-123.523 154.188,-77.915 c 0,0 149.869,-0.138 209.394,0.167 14.145,0.074 14.355,23.685 14.964,32.8 L 0,0 z"
                   id="path5404"
                   style="fill:#231f20;fill-opacity:1;fill-rule:nonzero;stroke:none" />
              </g>
            </g>
          </g>
        </g>
        <g
           transform="translate(1534.6442,9555.0479)"
           id="g5406">
          <path
             d="M 0,0 -15.65,6.738 10.182,66.729 29.698,68.97 0,0 z"
             id="path5408"
             style="fill:#f8f8f8;fill-opacity:1;fill-rule:nonzero;stroke:none" />
        </g>
        <g
           transform="translate(1514.4237,9500.46)"
           id="g5410">
          <path
             d="m 0,0 -21.143,9.104 c -2.526,1.087 -3.702,4.044 -2.615,6.57 l 38.272,88.884 c 1.088,2.525 4.044,3.702 6.57,2.614 l 21.143,-9.104 c 2.526,-1.088 3.703,-4.044 2.615,-6.57 L 6.57,2.615 C 5.482,0.089 2.526,-1.088 0,0"
             id="path5412"
             style="fill:#e81b56;fill-opacity:1;fill-rule:nonzero;stroke:none" />
        </g>
        <g
           transform="translate(1521.1514,9523.7119)"
           id="g5414">
          <path
             d="m 0,0 c -5.217,2.246 -10.433,4.492 -15.65,6.739 9.899,22.99 19.799,45.98 29.698,68.97 5.217,-2.246 10.433,-4.492 15.65,-6.739 C 19.798,45.98 9.899,22.99 0,0"
             id="path5416"
             style="fill:#f8f8f8;fill-opacity:1;fill-rule:nonzero;stroke:none" />
        </g>
        <g
           transform="translate(1510.8868,9533.1494)"
           id="g5418">
          <path
             d="M 0,0 9.012,-3.88 10.982,0.696 1.971,4.577 0,0 z M 11.263,-9.537 -5.657,-2.251 -0.281,10.234 16.64,2.948 11.263,-9.537 z"
             id="path5420"
             style="fill:#3f3f3f;fill-opacity:1;fill-rule:nonzero;stroke:none" />
        </g>
        <g
           transform="translate(1518.5242,9513.5869)"
           id="g5422">
          <path
             d="m 0,0 -18.086,7.787 5.79,13.446 L 5.79,13.446 0,0 z"
             id="path5424"
             style="fill:#282828;fill-opacity:1;fill-rule:nonzero;stroke:none" />
        </g>
        <g
           transform="translate(1512.2094,9549.4014)"
           id="g5426">
          <path
             d="m 0,0 c 0.304,1.592 1.093,2.781 1.855,3.932 0.658,0.993 1.279,1.93 1.542,3.073 L 3.54,7.63 c 0.36,1.577 0.671,2.94 1.252,4.596 0.339,0.966 1.027,1.676 1.58,2.247 1.26,1.299 2.515,2.594 3.024,4.133 0.316,0.955 0.354,2.006 0.394,3.12 0.017,0.483 0.035,0.966 0.075,1.446 0.19,2.327 1.012,4.055 2.377,4.996 0.224,0.154 0.464,0.287 0.704,0.417 0.273,0.149 0.532,0.29 0.706,0.452 0.202,0.189 0.365,0.472 0.548,0.839 0.851,1.7 1.393,3.6 1.57,5.493 0.034,0.367 0.056,0.737 0.078,1.108 0.07,1.186 0.143,2.412 0.591,3.606 0.58,1.543 1.66,2.711 2.706,3.842 0.382,0.413 0.765,0.826 1.117,1.257 1.045,1.274 1.896,3.117 1.149,4.465 l 1.749,0.969 C 24.206,48.728 23.701,46.222 21.809,43.913 21.431,43.452 21.022,43.01 20.613,42.566 19.657,41.532 18.753,40.556 18.312,39.38 17.969,38.469 17.909,37.443 17.845,36.358 17.821,35.966 17.798,35.573 17.761,35.184 17.559,33.016 16.963,30.928 15.99,28.981 15.747,28.496 15.461,27.99 15.016,27.575 14.657,27.239 14.256,27.021 13.902,26.828 13.723,26.731 13.544,26.636 13.378,26.521 12.298,25.776 11.955,24.2 11.858,23.009 11.821,22.56 11.805,22.106 11.789,21.654 11.745,20.449 11.701,19.204 11.295,17.979 10.642,16.004 9.225,14.542 7.854,13.128 7.278,12.534 6.859,12.074 6.679,11.563 6.135,10.015 5.851,8.766 5.49,7.185 L 5.346,6.557 C 5.002,5.061 4.25,3.925 3.522,2.827 2.839,1.796 2.193,0.821 1.965,-0.375 L 0,0 z"
             id="path5428"
             style="fill:#e81b56;fill-opacity:1;fill-rule:nonzero;stroke:none" />
        </g>
        <g
           transform="translate(1530.2469,9541.6348)"
           id="g5430">
          <path
             d="M 0,0 C 0.947,1.314 1.269,2.705 1.582,4.05 1.85,5.21 2.105,6.306 2.754,7.281 L 3.11,7.814 c 0.899,1.346 1.675,2.508 2.478,4.069 0.47,0.91 0.512,1.898 0.547,2.692 0.079,1.808 0.157,3.61 0.925,5.037 0.476,0.885 1.214,1.636 1.996,2.43 0.339,0.345 0.678,0.69 0.999,1.048 1.56,1.737 2.249,3.521 1.996,5.161 -0.042,0.268 -0.111,0.533 -0.181,0.797 -0.079,0.302 -0.155,0.586 -0.156,0.824 -0.002,0.275 0.091,0.589 0.232,0.975 0.651,1.786 1.658,3.485 2.912,4.915 0.243,0.277 0.497,0.548 0.751,0.817 0.813,0.866 1.654,1.762 2.214,2.908 0.722,1.482 0.828,3.07 0.931,4.606 0.038,0.561 0.075,1.123 0.145,1.675 0.208,1.635 0.963,3.519 2.455,3.903 l -0.498,1.937 C 18.766,51.07 17.292,48.981 16.915,46.021 16.84,45.429 16.799,44.827 16.759,44.226 16.665,42.82 16.576,41.493 16.025,40.364 15.598,39.489 14.895,38.741 14.151,37.949 13.882,37.662 13.613,37.375 13.355,37.081 11.918,35.444 10.812,33.576 10.066,31.531 9.881,31.022 9.709,30.467 9.714,29.858 9.717,29.366 9.834,28.925 9.937,28.535 9.989,28.339 10.043,28.144 10.074,27.944 10.275,26.647 9.365,25.315 8.566,24.426 8.265,24.09 7.947,23.768 7.63,23.445 6.784,22.585 5.91,21.697 5.299,20.56 4.314,18.729 4.225,16.694 4.14,14.728 4.104,13.9 4.058,13.28 3.81,12.798 3.059,11.339 2.347,10.274 1.447,8.926 L 1.089,8.39 C 0.238,7.111 -0.069,5.784 -0.367,4.502 -0.646,3.297 -0.911,2.158 -1.623,1.17 L 0,0 z"
             id="path5432"
             style="fill:#e81b56;fill-opacity:1;fill-rule:nonzero;stroke:none" />
        </g>
        <g
           transform="translate(1526.5177,9532.1514)"
           id="g5434">
          <path
             d="m 0,0 -18.086,7.787 5.79,13.446 L 5.79,13.446 0,0 z"
             id="path5436"
             style="fill:#282828;fill-opacity:1;fill-rule:nonzero;stroke:none" />
        </g>
        <g
           id="g5438">
          <g
             id="g5440" />
          <g
             id="g5446">
            <g
               clip-path="url(#clipPath5442)"
               id="g5448"
               style="opacity:0.80000299">
              <g
                 transform="translate(1727.5433,9791.0752)"
                 id="g5450">
                <path
                   d="M 0,0 C -4.06,-1.362 -8.454,0.825 -9.816,4.885 -11.177,8.944 -8.99,13.339 -4.93,14.7 -0.871,16.062 3.524,13.875 4.885,9.815 6.247,5.756 4.06,1.361 0,0 M -40.746,16.922 80.403,-344.304 143.451,-323.158 22.303,38.067 -40.746,16.922 z"
                   id="path5452"
                   style="fill:#ffffff;fill-opacity:1;fill-rule:nonzero;stroke:none" />
              </g>
            </g>
          </g>
        </g>
        <g
           transform="translate(1766.3003,9758.8545)"
           id="g5454">
          <path
             d="M 0,0 0.44,-1.312 6.338,0.665 5.898,1.978 0,0 z"
             id="path5456"
             style="fill:#678073;fill-opacity:1;fill-rule:nonzero;stroke:none" />
        </g>
        <g
           transform="translate(1759.002,9780.6152)"
           id="g5458">
          <path
             d="M 0,0 0.44,-1.312 6.338,0.666 5.898,1.979 0,0 z"
             id="path5460"
             style="fill:#678073;fill-opacity:1;fill-rule:nonzero;stroke:none" />
        </g>
        <g
           transform="translate(1762.8531,9769.1328)"
           id="g5462">
          <path
             d="M 0,0 0.44,-1.312 6.338,0.665 5.898,1.978 0,0 z"
             id="path5464"
             style="fill:#678073;fill-opacity:1;fill-rule:nonzero;stroke:none" />
        </g>
        <g
           transform="translate(1776.9938,9726.9697)"
           id="g5466">
          <path
             d="M 0,0 0.44,-1.312 6.338,0.666 5.898,1.978 0,0 z"
             id="path5468"
             style="fill:#678073;fill-opacity:1;fill-rule:nonzero;stroke:none" />
        </g>
        <g
           transform="translate(1769.6954,9748.7314)"
           id="g5470">
          <path
             d="M 0,0 0.44,-1.312 6.338,0.665 5.898,1.978 0,0 z"
             id="path5472"
             style="fill:#678073;fill-opacity:1;fill-rule:nonzero;stroke:none" />
        </g>
        <g
           transform="translate(1773.5466,9737.248)"
           id="g5474">
          <path
             d="M 0,0 0.44,-1.312 6.338,0.666 5.898,1.978 0,0 z"
             id="path5476"
             style="fill:#678073;fill-opacity:1;fill-rule:nonzero;stroke:none" />
        </g>
        <g
           transform="translate(1787.7892,9694.7813)"
           id="g5478">
          <path
             d="M 0,0 0.44,-1.312 6.338,0.666 5.898,1.978 0,0 z"
             id="path5480"
             style="fill:#678073;fill-opacity:1;fill-rule:nonzero;stroke:none" />
        </g>
        <g
           transform="translate(1780.4908,9716.543)"
           id="g5482">
          <path
             d="M 0,0 0.44,-1.312 6.338,0.665 5.898,1.978 0,0 z"
             id="path5484"
             style="fill:#678073;fill-opacity:1;fill-rule:nonzero;stroke:none" />
        </g>
        <g
           transform="translate(1784.342,9705.0596)"
           id="g5486">
          <path
             d="M 0,0 0.44,-1.312 6.338,0.666 5.898,1.978 0,0 z"
             id="path5488"
             style="fill:#678073;fill-opacity:1;fill-rule:nonzero;stroke:none" />
        </g>
        <g
           transform="translate(1798.4827,9662.8965)"
           id="g5490">
          <path
             d="M 0,0 0.44,-1.312 6.338,0.666 5.898,1.979 0,0 z"
             id="path5492"
             style="fill:#678073;fill-opacity:1;fill-rule:nonzero;stroke:none" />
        </g>
        <g
           transform="translate(1791.1843,9684.6582)"
           id="g5494">
          <path
             d="M 0,0 0.44,-1.312 6.338,0.666 5.898,1.978 0,0 z"
             id="path5496"
             style="fill:#678073;fill-opacity:1;fill-rule:nonzero;stroke:none" />
        </g>
        <g
           transform="translate(1795.0355,9673.1748)"
           id="g5498">
          <path
             d="M 0,0 0.44,-1.312 6.338,0.666 5.898,1.979 0,0 z"
             id="path5500"
             style="fill:#678073;fill-opacity:1;fill-rule:nonzero;stroke:none" />
        </g>
        <g
           transform="translate(1808.7957,9632.1465)"
           id="g5502">
          <path
             d="M 0,0 0.44,-1.312 6.338,0.665 5.898,1.978 0,0 z"
             id="path5504"
             style="fill:#678073;fill-opacity:1;fill-rule:nonzero;stroke:none" />
        </g>
        <g
           transform="translate(1801.4973,9653.9072)"
           id="g5506">
          <path
             d="M 0,0 0.44,-1.312 6.338,0.666 5.898,1.979 0,0 z"
             id="path5508"
             style="fill:#678073;fill-opacity:1;fill-rule:nonzero;stroke:none" />
        </g>
        <g
           transform="translate(1805.3485,9642.4248)"
           id="g5510">
          <path
             d="M 0,0 0.44,-1.312 6.338,0.666 5.898,1.978 0,0 z"
             id="path5512"
             style="fill:#678073;fill-opacity:1;fill-rule:nonzero;stroke:none" />
        </g>
        <g
           transform="translate(1819.4891,9600.2617)"
           id="g5514">
          <path
             d="M 0,0 0.44,-1.312 6.338,0.666 5.898,1.978 0,0 z"
             id="path5516"
             style="fill:#678073;fill-opacity:1;fill-rule:nonzero;stroke:none" />
        </g>
        <g
           transform="translate(1812.1908,9622.0234)"
           id="g5518">
          <path
             d="M 0,0 0.44,-1.312 6.338,0.665 5.898,1.978 0,0 z"
             id="path5520"
             style="fill:#678073;fill-opacity:1;fill-rule:nonzero;stroke:none" />
        </g>
        <g
           transform="translate(1816.042,9610.54)"
           id="g5522">
          <path
             d="M 0,0 0.44,-1.312 6.338,0.666 5.898,1.979 0,0 z"
             id="path5524"
             style="fill:#678073;fill-opacity:1;fill-rule:nonzero;stroke:none" />
        </g>
        <g
           transform="translate(1830.2845,9568.0732)"
           id="g5526">
          <path
             d="M 0,0 0.44,-1.312 6.338,0.666 5.898,1.978 0,0 z"
             id="path5528"
             style="fill:#678073;fill-opacity:1;fill-rule:nonzero;stroke:none" />
        </g>
        <g
           transform="translate(1822.9862,9589.835)"
           id="g5530">
          <path
             d="M 0,0 0.44,-1.312 6.338,0.665 5.898,1.978 0,0 z"
             id="path5532"
             style="fill:#678073;fill-opacity:1;fill-rule:nonzero;stroke:none" />
        </g>
        <g
           transform="translate(1826.8374,9578.3516)"
           id="g5534">
          <path
             d="M 0,0 0.44,-1.312 6.338,0.666 5.898,1.978 0,0 z"
             id="path5536"
             style="fill:#678073;fill-opacity:1;fill-rule:nonzero;stroke:none" />
        </g>
        <g
           transform="translate(1840.978,9536.1885)"
           id="g5538">
          <path
             d="M 0,0 0.44,-1.312 6.338,0.666 5.898,1.979 0,0 z"
             id="path5540"
             style="fill:#678073;fill-opacity:1;fill-rule:nonzero;stroke:none" />
        </g>
        <g
           transform="translate(1833.6797,9557.9502)"
           id="g5542">
          <path
             d="M 0,0 0.44,-1.312 6.338,0.666 5.898,1.978 0,0 z"
             id="path5544"
             style="fill:#678073;fill-opacity:1;fill-rule:nonzero;stroke:none" />
        </g>
        <g
           transform="translate(1837.5309,9546.4668)"
           id="g5546">
          <path
             d="M 0,0 0.44,-1.312 6.338,0.666 5.898,1.979 0,0 z"
             id="path5548"
             style="fill:#678073;fill-opacity:1;fill-rule:nonzero;stroke:none" />
        </g>
        <g
           transform="translate(1851.8069,9503.9004)"
           id="g5550">
          <path
             d="M 0,0 0.44,-1.312 6.338,0.666 5.898,1.978 0,0 z"
             id="path5552"
             style="fill:#678073;fill-opacity:1;fill-rule:nonzero;stroke:none" />
        </g>
        <g
           transform="translate(1844.5085,9525.6621)"
           id="g5554">
          <path
             d="M 0,0 0.44,-1.312 6.338,0.665 5.898,1.978 0,0 z"
             id="path5556"
             style="fill:#678073;fill-opacity:1;fill-rule:nonzero;stroke:none" />
        </g>
        <g
           transform="translate(1848.3597,9514.1787)"
           id="g5558">
          <path
             d="M 0,0 0.44,-1.312 6.338,0.666 5.898,1.978 0,0 z"
             id="path5560"
             style="fill:#678073;fill-opacity:1;fill-rule:nonzero;stroke:none" />
        </g>
        <g
           id="g5562">
          <g
             id="g5564" />
          <g
             id="g5570">
            <g
               clip-path="url(#clipPath5566)"
               id="g5572"
               style="opacity:0.19000202">
              <g
                 transform="translate(1768.7152,9775.666)"
                 id="g5574">
                <path
                   d="m 0,0 116.629,-351.969 c 0.025,-0.075 0.1,-0.12 0.177,-0.101 1.007,0.232 7.463,2.121 11.423,12.984 0.007,0.018 0.01,0.037 0.01,0.056 l 0,262.092 c 0,0.053 -0.028,0.103 -0.074,0.13 C 62.963,-37.269 5.192,-2.784 0.217,0.184 0.095,0.257 -0.045,0.135 0,0"
                   id="path5576"
                   style="fill:#231f20;fill-opacity:1;fill-rule:nonzero;stroke:none" />
              </g>
            </g>
          </g>
        </g>
      </g>
    </g>
  </g>
</svg>
