<?xml version="1.0" encoding="UTF-8" standalone="no"?>
<!-- Created with Inkscape (http://www.inkscape.org/) -->

<svg
   xmlns:dc="http://purl.org/dc/elements/1.1/"
   xmlns:cc="http://creativecommons.org/ns#"
   xmlns:rdf="http://www.w3.org/1999/02/22-rdf-syntax-ns#"
   xmlns:svg="http://www.w3.org/2000/svg"
   xmlns="http://www.w3.org/2000/svg"
   version="1.1"
   width="752.70752"
   height="733.31"
   id="svg20082">
  <defs
     id="defs20084">
    <clipPath
       id="clipPath11548">
      <path
         d="m 0,13808 3899.22,0 0,-13808 L 0,0 0,13808 z"
         id="path11550" />
    </clipPath>
    <clipPath
       id="clipPath11560">
      <path
         d="m 852.379,3842.55 154.881,0 0,-175.85 -154.881,0 0,175.85 z"
         id="path11562" />
    </clipPath>
    <clipPath
       id="clipPath11580">
      <path
         d="m 861.379,3590.53 338.531,0 0,-163.9 -338.531,0 0,163.9 z"
         id="path11582" />
    </clipPath>
    <clipPath
       id="clipPath11600">
      <path
         d="m 1083.44,3799.55 140.24,0 0,-134.25 -140.24,0 0,134.25 z"
         id="path11602" />
    </clipPath>
    <clipPath
       id="clipPath11620">
      <path
         d="m 816.469,3702.47 125.111,0 0,-175.18 -125.111,0 0,175.18 z"
         id="path11622" />
    </clipPath>
    <clipPath
       id="clipPath11684">
      <path
         d="m 972.465,3896.64 148.795,0 0,-137.79 -148.795,0 0,137.79 z"
         id="path11686" />
    </clipPath>
  </defs>
  <metadata
     id="metadata20087">
    <rdf:RDF>
      <cc:Work
         rdf:about="">
        <dc:format>image/svg+xml</dc:format>
        <dc:type
           rdf:resource="http://purl.org/dc/dcmitype/StillImage" />
        <dc:title></dc:title>
      </cc:Work>
    </rdf:RDF>
  </metadata>
  <g
     transform="translate(1.35375,-165.70722)"
     id="layer1">
    <g
       id="g21680">
      <g
         transform="matrix(1.25,0,0,-1.25,681.95625,532.36222)"
         id="g11552"
         style="fill:#c0d7a1;fill-opacity:1">
        <path
           d="m 0,0 c 0,-139.907 -113.417,-253.324 -253.324,-253.324 -139.907,0 -253.324,113.417 -253.324,253.324 0,139.907 113.417,253.324 253.324,253.324 C -113.417,253.324 0,139.907 0,0"
           id="path11554"
           style="fill:#c0d7a1;fill-opacity:1;fill-rule:nonzero;stroke:none" />
      </g>
      <g
         transform="matrix(1.25,0,0,-1.25,-850.94975,5117.2456)"
         id="g11556">
        <g
           id="g11558" />
        <g
           id="g11564">
          <g
             clip-path="url(#clipPath11560)"
             id="g11566"
             style="opacity:0.21000701">
            <g
               transform="translate(865.546,3842.5513)"
               id="g11568">
              <path
                 d="m 0,0 141.711,-102.218 0,-46.789 -9.333,-26.841 L -13.167,-86 0,0 z"
                 id="path11570"
                 style="fill:#000000;fill-opacity:1;fill-rule:nonzero;stroke:none" />
            </g>
          </g>
        </g>
      </g>
      <g
         transform="matrix(1.25,0,0,-1.25,648.93712,668.72935)"
         id="g11572"
         style="fill:#98aa80;fill-opacity:1">
        <path
           d="m 0,0 -37.024,31.714 -296.71,0 -4.796,-62.48 186.925,-101.414 C -84.521,-111.225 -29.594,-62.761 0,0"
           id="path11574"
           style="fill:#98aa80;fill-opacity:1;fill-rule:nonzero;stroke:none" />
      </g>
      <g
         transform="matrix(1.25,0,0,-1.25,-850.94975,5117.2456)"
         id="g11576"
         style="fill:#c0d7a1;fill-opacity:1">
        <g
           id="g11578"
           style="fill:#c0d7a1;fill-opacity:1" />
        <g
           id="g11584"
           style="fill:#c0d7a1;fill-opacity:1">
          <g
             clip-path="url(#clipPath11580)"
             id="g11586"
             style="opacity:0.21000701;fill:#c0d7a1;fill-opacity:1">
            <g
               transform="translate(1199.9095,3558.813)"
               id="g11588"
               style="fill:#c0d7a1;fill-opacity:1">
              <path
                 d="m 0,0 -37.024,31.714 -296.71,0 -4.796,-62.48 186.925,-101.414 C -84.521,-111.225 -29.594,-62.761 0,0"
                 id="path11590"
                 style="fill:#c0d7a1;fill-opacity:1;fill-rule:nonzero;stroke:none" />
            </g>
          </g>
        </g>
      </g>
      <g
         transform="matrix(1.25,0,0,-1.25,-850.94975,5117.2456)"
         id="g11596"
         style="fill:#bfd7a1;fill-opacity:1">
        <g
           id="g11598"
           style="fill:#bfd7a1;fill-opacity:1" />
        <g
           id="g11604"
           style="fill:#bfd7a1;fill-opacity:1">
          <g
             clip-path="url(#clipPath11600)"
             id="g11606"
             style="opacity:0.21000701;fill:#bfd7a1;fill-opacity:1">
            <g
               transform="translate(1124.4192,3799.5513)"
               id="g11608"
               style="fill:#bfd7a1;fill-opacity:1">
              <path
                 d="M 0,0 -40.976,-41.458 99.257,-134.25 c 0,21.821 -2.803,42.986 -8.055,63.162 C 53.86,-43.203 -0.003,-2.539 0,0"
                 id="path11610"
                 style="fill:#bfd7a1;fill-opacity:1;fill-rule:nonzero;stroke:none" />
            </g>
          </g>
        </g>
      </g>
      <g
         transform="matrix(1.25,0,0,-1.25,554.57425,367.80648)"
         id="g11592"
         style="fill:#98aa80;fill-opacity:1">
        <path
           d="M 0,0 -40.976,-41.458 99.257,-134.25 c 0,21.821 -2.803,42.986 -8.055,63.162 C 53.86,-43.203 -0.003,-2.539 0,0"
           id="path11594"
           style="fill:#98aa80;fill-opacity:1;fill-rule:nonzero;stroke:none" />
      </g>
      <g
         transform="matrix(1.25,0,0,-1.25,371.94187,505.86835)"
         id="g11612">
        <path
           d="m 0,0 c -15.944,-2.38 -108.8,12.017 -121.619,-1.26 -14.266,-14.775 -10.853,-65.634 -9.83,-84.629 4.501,-83.565 61.94,-74.027 113.964,-75.875 48.044,-1.705 109.843,-6.167 106.066,83.675 C 85.111,4.442 43.66,6.518 0,0"
           id="path11614"
           style="fill:#ffe2c5;fill-opacity:1;fill-rule:nonzero;stroke:none" />
      </g>
      <g
         transform="matrix(1.25,0,0,-1.25,-850.94975,5117.2456)"
         id="g11616">
        <g
           id="g11618" />
        <g
           id="g11624">
          <g
             clip-path="url(#clipPath11620)"
             id="g11626"
             style="opacity:0.11000103">
            <g
               transform="translate(852.9196,3697.2449)"
               id="g11628">
              <path
                 d="m 0,0 c -24.19,1.624 -43.703,-21.439 -17.552,-36.773 13.205,-7.744 80.14,-3.762 90.179,6.001 C 85.616,-18.14 83.04,-11.69 72.824,-5.4 48.185,9.773 -20.899,9.569 -23.234,-11.67"
                 id="path11630"
                 style="fill:#000000;fill-opacity:1;fill-rule:nonzero;stroke:none" />
            </g>
            <g
               transform="translate(846.4706,3649.5007)"
               id="g11632">
              <path
                 d="m 0,0 c -24.19,1.624 -43.703,-21.439 -17.552,-36.773 13.205,-7.744 80.14,-3.762 90.179,6.001 44.318,43.101 -92.559,49.147 -95.861,19.102"
                 id="path11634"
                 style="fill:#000000;fill-opacity:1;fill-rule:nonzero;stroke:none" />
            </g>
            <g
               transform="translate(860.1296,3607.4451)"
               id="g11636">
              <path
                 d="m 0,0 c -24.19,1.625 -43.703,-21.439 -17.552,-36.773 13.205,-7.744 80.14,-3.762 90.179,6.001 44.318,43.101 -92.559,49.147 -95.861,19.102"
                 id="path11638"
                 style="fill:#000000;fill-opacity:1;fill-rule:nonzero;stroke:none" />
            </g>
            <g
               transform="translate(865.6423,3560.5439)"
               id="g11640">
              <path
                 d="m 0,0 c -19.69,1.322 -35.572,-17.45 -14.286,-29.932 10.748,-6.302 65.229,-3.061 73.4,4.885 36.073,35.082 -75.337,40.004 -78.025,15.548"
                 id="path11642"
                 style="fill:#000000;fill-opacity:1;fill-rule:nonzero;stroke:none" />
            </g>
          </g>
        </g>
      </g>
      <g
         transform="matrix(1.25,0,0,-1.25,472.52112,546.75885)"
         id="g11644">
        <path
           d="m 0,0 141.987,-4.401 -3.066,-96.26 -146.536,0 L 0,0 z"
           id="path11646"
           style="fill:#ffe2c5;fill-opacity:1;fill-rule:nonzero;stroke:none" />
      </g>
      <g
         transform="matrix(1.25,0,0,-1.25,209.80863,494.12798)"
         id="g11648">
        <path
           d="m 0,0 c -23.364,1.718 -42.119,-21.328 -16.812,-36.796 12.78,-7.811 77.395,-4.068 87.052,5.682 42.633,43.039 -89.553,49.607 -92.631,19.502"
           id="path11650"
           style="fill:#ffe2c5;fill-opacity:1;fill-rule:nonzero;stroke:none" />
      </g>
      <g
         transform="matrix(1.25,0,0,-1.25,202.24575,553.92035)"
         id="g11652">
        <path
           d="m 0,0 c -23.364,1.718 -42.119,-21.329 -16.812,-36.796 12.78,-7.811 77.395,-4.068 87.052,5.682 42.633,43.039 -89.553,49.607 -92.631,19.502"
           id="path11654"
           style="fill:#ffe2c5;fill-opacity:1;fill-rule:nonzero;stroke:none" />
      </g>
      <g
         transform="matrix(1.25,0,0,-1.25,218.92612,606.6786)"
         id="g11656">
        <path
           d="m 0,0 c -23.364,1.718 -42.119,-21.328 -16.812,-36.796 12.78,-7.811 77.395,-4.067 87.052,5.682 42.633,43.039 -89.553,49.607 -92.631,19.502"
           id="path11658"
           style="fill:#ffe2c5;fill-opacity:1;fill-rule:nonzero;stroke:none" />
      </g>
      <g
         transform="matrix(1.25,0,0,-1.25,225.79675,665.4701)"
         id="g11660">
        <path
           d="m 0,0 c -19.017,1.398 -34.283,-17.36 -13.684,-29.95 10.402,-6.358 62.995,-3.311 70.856,4.625 34.701,35.032 -72.892,40.377 -75.397,15.874"
           id="path11662"
           style="fill:#ffe2c5;fill-opacity:1;fill-rule:nonzero;stroke:none" />
      </g>
      <g
         transform="matrix(1.25,0,0,-1.25,403.46512,527.98135)"
         id="g11664">
        <path
           d="m 0,0 c 4.024,-2.466 8.748,-3.531 13.426,-4.162 9.7,-1.307 19.629,-0.899 29.189,1.2 -6.003,27.909 -27.07,50.74 -33.217,78.617 -2.303,10.444 -2.482,21.49 -6.845,31.254 -0.043,0.098 -0.088,0.195 -0.133,0.293 -6.354,13.785 -26.853,10.24 -28.598,-4.838 C -29.49,73.751 -25.11,44.242 -13.401,17.913 -10.322,10.991 -6.459,3.959 0,0"
           id="path11666"
           style="fill:#ffe2c5;fill-opacity:1;fill-rule:nonzero;stroke:none" />
      </g>
      <g
         transform="matrix(1.25,0,0,-1.25,576.42988,533.8661)"
         id="g11668">
        <path
           d="m 0,0 -50.276,0 0,-124.835 L 0,-123.953 0,0 z"
           id="path11670"
           style="fill:#ffffff;fill-opacity:1;fill-rule:nonzero;stroke:none" />
      </g>
      <g
         transform="matrix(1.25,0,0,-1.25,551.905,519.8826)"
         id="g11672">
        <path
           d="m 0,0 -5.518,-147.3 121.077,6.962 4,118.968 L 0,0 z"
           id="path11674"
           style="fill:#26424b;fill-opacity:1;fill-rule:nonzero;stroke:none" />
      </g>
      <g
         transform="matrix(1.25,0,0,-1.25,214.52363,355.30648)"
         id="g11676">
        <path
           d="M 0,0 13.167,33 34.879,3 65.114,0 48,-18 59.578,-48 26.238,-30 0,-53 -5.129,-24 -30.465,-12 0,0 z"
           id="path11678"
           style="fill:#ffffff;fill-opacity:1;fill-rule:nonzero;stroke:none" />
      </g>
      <g
         transform="matrix(1.25,0,0,-1.25,-850.94975,5117.2456)"
         id="g11680">
        <g
           id="g11682" />
        <g
           id="g11688">
          <g
             clip-path="url(#clipPath11684)"
             id="g11690"
             style="opacity:0.21000701">
            <g
               transform="translate(991.3844,3896.635)"
               id="g11692">
              <path
                 d="M 0,0 129.873,-101.635 100.243,-137.786 -18.919,-66.892 0,0 z"
                 id="path11694"
                 style="fill:#000000;fill-opacity:1;fill-rule:nonzero;stroke:none" />
            </g>
          </g>
        </g>
      </g>
      <g
         transform="matrix(1.25,0,0,-1.25,529.41937,383.70135)"
         id="g11696">
        <path
           d="m 0,0 20.124,12.716 -0.029,-24.811 15.217,-13.522 -16.363,-3.029 -5.524,-20.824 -10.999,22.878 -23.278,-2.15 8.628,17.744 L -21.242,5.478 0,0 z"
           id="path11698"
           style="fill:#ffffff;fill-opacity:1;fill-rule:nonzero;stroke:none" />
      </g>
      <g
         transform="matrix(1.25,0,0,-1.25,371.16325,277.53672)"
         id="g11700">
        <path
           d="M 0,0 13.694,24.868 27.952,-1.06 51.629,-6.42 36.285,-19.005 l 6.223,-24.929 -24.661,17.56 -23.072,-15.65 -1.208,23.5 L -25.339,-6.511 0,0 z"
           id="path11702"
           style="fill:#ffffff;fill-opacity:1;fill-rule:nonzero;stroke:none" />
      </g>
    </g>
  </g>
</svg>
